/* XPM */
static char * close_pressed_xpm[] = {
"14 14 3 1",
" 	c None",
".	c #000000",
"+	c #FFFFFF",
"..............",
"..............",
"..............",
"..............",
"..............",
"..............",
"...+++++++....",
"...+++++++....",
"..............",
"..............",
"..............",
"..............",
"..............",
".............."};
